# xmcd CD database file
#
# Track frame offsets:
#	150
#	18948
#	45811
#	56362
#	74671
#	100503
#	114110
#	131846
#	143955
#	162702
#	177277
#	210760
#	250339
#	275920
#	302236
#
# Disc length: 4372 seconds
#
# Revision: 1
# Processed by: cddbd v1.5.1PL2 Copyright (c) Steve Scherf et al.
# Submitted via: CDex 1.51
#
DISCID=d111120f
DTITLE=Miles Davis - Real Gold     CD 2
DYEAR=2003
DGENRE=Jazz
TTITLE0=Conception
TTITLE1=Ray's Idea
TTITLE2=That Old Black Magic
TTITLE3=Max Is Making Wax
TTITLE4=Woody'n You
TTITLE5=Ornithology
TTITLE6=Embraceable You
TTITLE7=Milestones
TTITLE8=Scrapple The Apple
TTITLE9=Bird Of Paradise
TTITLE10=Down
TTITLE11=The Squirrel
TTITLE12=Lady Bird
TTITLE13=Confirmation
TTITLE14=Out Of The Blue
EXTD=YEAR: 2003
EXTT0=
EXTT1=
EXTT2=
EXTT3=
EXTT4=
EXTT5=
EXTT6=
EXTT7=
EXTT8=
EXTT9=
EXTT10=
EXTT11=
EXTT12=
EXTT13=
EXTT14=
PLAYORDER=
